<mxfile host="app.diagrams.net" agent="Mozilla/5.0 (X11; Ubuntu; Linux x86_64; rv:141.0) Gecko/20100101 Firefox/141.0" version="28.2.7">
  <diagram id="C5RBs43oDa-KdzZeNtuy" name="Page-1">
    <mxGraphModel dx="1412" dy="781" grid="0" gridSize="10" guides="1" tooltips="1" connect="1" arrows="1" fold="1" page="1" pageScale="1" pageWidth="827" pageHeight="1169" math="0" shadow="0">
      <root>
        <mxCell id="WIyWlLk6GJQsqaUBKTNV-0" />
        <mxCell id="WIyWlLk6GJQsqaUBKTNV-1" parent="WIyWlLk6GJQsqaUBKTNV-0" />
        <mxCell id="vrLYnw8pPP6m5QOJZbOX-63" style="edgeStyle=orthogonalEdgeStyle;rounded=0;orthogonalLoop=1;jettySize=auto;html=1;entryX=0.5;entryY=0;entryDx=0;entryDy=0;" edge="1" parent="WIyWlLk6GJQsqaUBKTNV-1" source="WIyWlLk6GJQsqaUBKTNV-3" target="vrLYnw8pPP6m5QOJZbOX-61">
          <mxGeometry relative="1" as="geometry" />
        </mxCell>
        <mxCell id="WIyWlLk6GJQsqaUBKTNV-3" value="Inisialisasi Variabel dan PinMode" style="rounded=1;whiteSpace=wrap;html=1;fontSize=12;glass=0;strokeWidth=1;shadow=0;" parent="WIyWlLk6GJQsqaUBKTNV-1" vertex="1">
          <mxGeometry x="110" y="170" width="120" height="40" as="geometry" />
        </mxCell>
        <mxCell id="vrLYnw8pPP6m5QOJZbOX-5" style="edgeStyle=orthogonalEdgeStyle;rounded=0;orthogonalLoop=1;jettySize=auto;html=1;entryX=0.5;entryY=0;entryDx=0;entryDy=0;" edge="1" parent="WIyWlLk6GJQsqaUBKTNV-1" source="vrLYnw8pPP6m5QOJZbOX-0" target="WIyWlLk6GJQsqaUBKTNV-3">
          <mxGeometry relative="1" as="geometry" />
        </mxCell>
        <mxCell id="vrLYnw8pPP6m5QOJZbOX-0" value="Mulai" style="strokeWidth=2;html=1;shape=mxgraph.flowchart.terminator;whiteSpace=wrap;" vertex="1" parent="WIyWlLk6GJQsqaUBKTNV-1">
          <mxGeometry x="120" y="80" width="100" height="60" as="geometry" />
        </mxCell>
        <mxCell id="vrLYnw8pPP6m5QOJZbOX-7" style="edgeStyle=orthogonalEdgeStyle;rounded=0;orthogonalLoop=1;jettySize=auto;html=1;" edge="1" parent="WIyWlLk6GJQsqaUBKTNV-1" source="vrLYnw8pPP6m5QOJZbOX-1" target="vrLYnw8pPP6m5QOJZbOX-2">
          <mxGeometry relative="1" as="geometry" />
        </mxCell>
        <mxCell id="vrLYnw8pPP6m5QOJZbOX-1" value="&lt;div&gt;Baca ADC&lt;/div&gt;&lt;div&gt;Potensiometer&lt;/div&gt;" style="rounded=1;whiteSpace=wrap;html=1;fontSize=12;glass=0;strokeWidth=1;shadow=0;" vertex="1" parent="WIyWlLk6GJQsqaUBKTNV-1">
          <mxGeometry x="110" y="300" width="120" height="40" as="geometry" />
        </mxCell>
        <mxCell id="vrLYnw8pPP6m5QOJZbOX-9" value="" style="edgeStyle=orthogonalEdgeStyle;rounded=0;orthogonalLoop=1;jettySize=auto;html=1;" edge="1" parent="WIyWlLk6GJQsqaUBKTNV-1" source="vrLYnw8pPP6m5QOJZbOX-2" target="vrLYnw8pPP6m5QOJZbOX-8">
          <mxGeometry relative="1" as="geometry" />
        </mxCell>
        <mxCell id="vrLYnw8pPP6m5QOJZbOX-32" style="edgeStyle=orthogonalEdgeStyle;rounded=0;orthogonalLoop=1;jettySize=auto;html=1;" edge="1" parent="WIyWlLk6GJQsqaUBKTNV-1" source="vrLYnw8pPP6m5QOJZbOX-2" target="vrLYnw8pPP6m5QOJZbOX-25">
          <mxGeometry relative="1" as="geometry" />
        </mxCell>
        <mxCell id="vrLYnw8pPP6m5QOJZbOX-2" value="&lt;div&gt;Konversi ke jarak&lt;/div&gt;&lt;div&gt;0-100cm (map)&lt;/div&gt;" style="rounded=1;whiteSpace=wrap;html=1;fontSize=12;glass=0;strokeWidth=1;shadow=0;" vertex="1" parent="WIyWlLk6GJQsqaUBKTNV-1">
          <mxGeometry x="110" y="370" width="120" height="40" as="geometry" />
        </mxCell>
        <mxCell id="vrLYnw8pPP6m5QOJZbOX-8" value="A" style="ellipse;whiteSpace=wrap;html=1;aspect=fixed;" vertex="1" parent="WIyWlLk6GJQsqaUBKTNV-1">
          <mxGeometry x="50" y="450" width="80" height="80" as="geometry" />
        </mxCell>
        <mxCell id="vrLYnw8pPP6m5QOJZbOX-24" style="edgeStyle=orthogonalEdgeStyle;rounded=0;orthogonalLoop=1;jettySize=auto;html=1;entryX=0.5;entryY=0;entryDx=0;entryDy=0;" edge="1" parent="WIyWlLk6GJQsqaUBKTNV-1" source="vrLYnw8pPP6m5QOJZbOX-10" target="vrLYnw8pPP6m5QOJZbOX-14">
          <mxGeometry relative="1" as="geometry" />
        </mxCell>
        <mxCell id="vrLYnw8pPP6m5QOJZbOX-10" value="A" style="ellipse;whiteSpace=wrap;html=1;aspect=fixed;" vertex="1" parent="WIyWlLk6GJQsqaUBKTNV-1">
          <mxGeometry x="330" y="75" width="80" height="80" as="geometry" />
        </mxCell>
        <mxCell id="vrLYnw8pPP6m5QOJZbOX-17" value="" style="edgeStyle=orthogonalEdgeStyle;rounded=0;orthogonalLoop=1;jettySize=auto;html=1;" edge="1" parent="WIyWlLk6GJQsqaUBKTNV-1" source="vrLYnw8pPP6m5QOJZbOX-14" target="vrLYnw8pPP6m5QOJZbOX-15">
          <mxGeometry relative="1" as="geometry" />
        </mxCell>
        <mxCell id="vrLYnw8pPP6m5QOJZbOX-14" value="Cek nilai &lt;i&gt;millis()&lt;/i&gt;" style="rounded=1;whiteSpace=wrap;html=1;fontSize=12;glass=0;strokeWidth=1;shadow=0;" vertex="1" parent="WIyWlLk6GJQsqaUBKTNV-1">
          <mxGeometry x="310" y="185" width="120" height="40" as="geometry" />
        </mxCell>
        <mxCell id="vrLYnw8pPP6m5QOJZbOX-18" value="" style="edgeStyle=orthogonalEdgeStyle;rounded=0;orthogonalLoop=1;jettySize=auto;html=1;" edge="1" parent="WIyWlLk6GJQsqaUBKTNV-1" source="vrLYnw8pPP6m5QOJZbOX-15" target="vrLYnw8pPP6m5QOJZbOX-16">
          <mxGeometry relative="1" as="geometry" />
        </mxCell>
        <mxCell id="vrLYnw8pPP6m5QOJZbOX-19" value="Sudah" style="edgeLabel;html=1;align=center;verticalAlign=middle;resizable=0;points=[];" vertex="1" connectable="0" parent="vrLYnw8pPP6m5QOJZbOX-18">
          <mxGeometry x="-0.2" y="-4" relative="1" as="geometry">
            <mxPoint as="offset" />
          </mxGeometry>
        </mxCell>
        <mxCell id="vrLYnw8pPP6m5QOJZbOX-20" style="edgeStyle=orthogonalEdgeStyle;rounded=0;orthogonalLoop=1;jettySize=auto;html=1;entryX=0;entryY=0.5;entryDx=0;entryDy=0;" edge="1" parent="WIyWlLk6GJQsqaUBKTNV-1" source="vrLYnw8pPP6m5QOJZbOX-15" target="vrLYnw8pPP6m5QOJZbOX-14">
          <mxGeometry relative="1" as="geometry">
            <Array as="points">
              <mxPoint x="290" y="295" />
              <mxPoint x="290" y="205" />
            </Array>
          </mxGeometry>
        </mxCell>
        <mxCell id="vrLYnw8pPP6m5QOJZbOX-21" value="Belum" style="edgeLabel;html=1;align=center;verticalAlign=middle;resizable=0;points=[];" vertex="1" connectable="0" parent="vrLYnw8pPP6m5QOJZbOX-20">
          <mxGeometry x="0.2375" y="1" relative="1" as="geometry">
            <mxPoint as="offset" />
          </mxGeometry>
        </mxCell>
        <mxCell id="vrLYnw8pPP6m5QOJZbOX-15" value="500ms?" style="rhombus;whiteSpace=wrap;html=1;" vertex="1" parent="WIyWlLk6GJQsqaUBKTNV-1">
          <mxGeometry x="330" y="265" width="80" height="80" as="geometry" />
        </mxCell>
        <mxCell id="vrLYnw8pPP6m5QOJZbOX-22" style="edgeStyle=orthogonalEdgeStyle;rounded=0;orthogonalLoop=1;jettySize=auto;html=1;entryX=1;entryY=0.5;entryDx=0;entryDy=0;" edge="1" parent="WIyWlLk6GJQsqaUBKTNV-1" source="vrLYnw8pPP6m5QOJZbOX-16" target="vrLYnw8pPP6m5QOJZbOX-14">
          <mxGeometry relative="1" as="geometry">
            <Array as="points">
              <mxPoint x="450" y="405" />
              <mxPoint x="450" y="205" />
            </Array>
          </mxGeometry>
        </mxCell>
        <mxCell id="vrLYnw8pPP6m5QOJZbOX-16" value="Print Jarak &amp;amp; Reset Interval" style="rounded=1;whiteSpace=wrap;html=1;fontSize=12;glass=0;strokeWidth=1;shadow=0;" vertex="1" parent="WIyWlLk6GJQsqaUBKTNV-1">
          <mxGeometry x="310" y="385" width="120" height="40" as="geometry" />
        </mxCell>
        <mxCell id="vrLYnw8pPP6m5QOJZbOX-25" value="B" style="ellipse;whiteSpace=wrap;html=1;aspect=fixed;" vertex="1" parent="WIyWlLk6GJQsqaUBKTNV-1">
          <mxGeometry x="210" y="450" width="80" height="80" as="geometry" />
        </mxCell>
        <mxCell id="vrLYnw8pPP6m5QOJZbOX-38" value="" style="edgeStyle=orthogonalEdgeStyle;rounded=0;orthogonalLoop=1;jettySize=auto;html=1;" edge="1" parent="WIyWlLk6GJQsqaUBKTNV-1" source="vrLYnw8pPP6m5QOJZbOX-33" target="vrLYnw8pPP6m5QOJZbOX-34">
          <mxGeometry relative="1" as="geometry" />
        </mxCell>
        <mxCell id="vrLYnw8pPP6m5QOJZbOX-33" value="B" style="ellipse;whiteSpace=wrap;html=1;aspect=fixed;" vertex="1" parent="WIyWlLk6GJQsqaUBKTNV-1">
          <mxGeometry x="500" y="75" width="80" height="80" as="geometry" />
        </mxCell>
        <mxCell id="vrLYnw8pPP6m5QOJZbOX-39" value="" style="edgeStyle=orthogonalEdgeStyle;rounded=0;orthogonalLoop=1;jettySize=auto;html=1;" edge="1" parent="WIyWlLk6GJQsqaUBKTNV-1" source="vrLYnw8pPP6m5QOJZbOX-34" target="vrLYnw8pPP6m5QOJZbOX-35">
          <mxGeometry relative="1" as="geometry" />
        </mxCell>
        <mxCell id="vrLYnw8pPP6m5QOJZbOX-52" value="Tidak" style="edgeLabel;html=1;align=center;verticalAlign=middle;resizable=0;points=[];" vertex="1" connectable="0" parent="vrLYnw8pPP6m5QOJZbOX-39">
          <mxGeometry x="-0.8" relative="1" as="geometry">
            <mxPoint as="offset" />
          </mxGeometry>
        </mxCell>
        <mxCell id="vrLYnw8pPP6m5QOJZbOX-46" style="edgeStyle=orthogonalEdgeStyle;rounded=0;orthogonalLoop=1;jettySize=auto;html=1;" edge="1" parent="WIyWlLk6GJQsqaUBKTNV-1" source="vrLYnw8pPP6m5QOJZbOX-34" target="vrLYnw8pPP6m5QOJZbOX-42">
          <mxGeometry relative="1" as="geometry" />
        </mxCell>
        <mxCell id="vrLYnw8pPP6m5QOJZbOX-51" value="Ya" style="edgeLabel;html=1;align=center;verticalAlign=middle;resizable=0;points=[];" vertex="1" connectable="0" parent="vrLYnw8pPP6m5QOJZbOX-46">
          <mxGeometry x="0.1333" y="1" relative="1" as="geometry">
            <mxPoint as="offset" />
          </mxGeometry>
        </mxCell>
        <mxCell id="vrLYnw8pPP6m5QOJZbOX-34" value="jarak &amp;gt; 75?" style="rhombus;whiteSpace=wrap;html=1;" vertex="1" parent="WIyWlLk6GJQsqaUBKTNV-1">
          <mxGeometry x="500" y="190" width="80" height="80" as="geometry" />
        </mxCell>
        <mxCell id="vrLYnw8pPP6m5QOJZbOX-40" value="" style="edgeStyle=orthogonalEdgeStyle;rounded=0;orthogonalLoop=1;jettySize=auto;html=1;" edge="1" parent="WIyWlLk6GJQsqaUBKTNV-1" source="vrLYnw8pPP6m5QOJZbOX-35" target="vrLYnw8pPP6m5QOJZbOX-36">
          <mxGeometry relative="1" as="geometry" />
        </mxCell>
        <mxCell id="vrLYnw8pPP6m5QOJZbOX-55" value="Tidak" style="edgeLabel;html=1;align=center;verticalAlign=middle;resizable=0;points=[];" vertex="1" connectable="0" parent="vrLYnw8pPP6m5QOJZbOX-40">
          <mxGeometry x="-0.68" y="3" relative="1" as="geometry">
            <mxPoint as="offset" />
          </mxGeometry>
        </mxCell>
        <mxCell id="vrLYnw8pPP6m5QOJZbOX-47" style="edgeStyle=orthogonalEdgeStyle;rounded=0;orthogonalLoop=1;jettySize=auto;html=1;" edge="1" parent="WIyWlLk6GJQsqaUBKTNV-1" source="vrLYnw8pPP6m5QOJZbOX-35" target="vrLYnw8pPP6m5QOJZbOX-43">
          <mxGeometry relative="1" as="geometry" />
        </mxCell>
        <mxCell id="vrLYnw8pPP6m5QOJZbOX-53" value="&lt;div&gt;Ya&lt;/div&gt;" style="edgeLabel;html=1;align=center;verticalAlign=middle;resizable=0;points=[];" vertex="1" connectable="0" parent="vrLYnw8pPP6m5QOJZbOX-47">
          <mxGeometry x="0.0333" y="4" relative="1" as="geometry">
            <mxPoint as="offset" />
          </mxGeometry>
        </mxCell>
        <mxCell id="vrLYnw8pPP6m5QOJZbOX-35" value="jarak &amp;gt; 40&lt;br&gt;&amp;amp;&amp;amp;&lt;br&gt;&amp;lt;= 75?" style="rhombus;whiteSpace=wrap;html=1;" vertex="1" parent="WIyWlLk6GJQsqaUBKTNV-1">
          <mxGeometry x="500" y="300" width="80" height="80" as="geometry" />
        </mxCell>
        <mxCell id="vrLYnw8pPP6m5QOJZbOX-48" style="edgeStyle=orthogonalEdgeStyle;rounded=0;orthogonalLoop=1;jettySize=auto;html=1;entryX=0;entryY=0.5;entryDx=0;entryDy=0;" edge="1" parent="WIyWlLk6GJQsqaUBKTNV-1" source="vrLYnw8pPP6m5QOJZbOX-36" target="vrLYnw8pPP6m5QOJZbOX-44">
          <mxGeometry relative="1" as="geometry" />
        </mxCell>
        <mxCell id="vrLYnw8pPP6m5QOJZbOX-49" style="edgeStyle=orthogonalEdgeStyle;rounded=0;orthogonalLoop=1;jettySize=auto;html=1;entryX=0.5;entryY=0;entryDx=0;entryDy=0;" edge="1" parent="WIyWlLk6GJQsqaUBKTNV-1" source="vrLYnw8pPP6m5QOJZbOX-36" target="vrLYnw8pPP6m5QOJZbOX-45">
          <mxGeometry relative="1" as="geometry" />
        </mxCell>
        <mxCell id="vrLYnw8pPP6m5QOJZbOX-60" value="Tidak" style="edgeLabel;html=1;align=center;verticalAlign=middle;resizable=0;points=[];" vertex="1" connectable="0" parent="vrLYnw8pPP6m5QOJZbOX-49">
          <mxGeometry x="-0.3778" y="3" relative="1" as="geometry">
            <mxPoint as="offset" />
          </mxGeometry>
        </mxCell>
        <mxCell id="vrLYnw8pPP6m5QOJZbOX-57" value="" style="edgeStyle=orthogonalEdgeStyle;rounded=0;orthogonalLoop=1;jettySize=auto;html=1;" edge="1" parent="WIyWlLk6GJQsqaUBKTNV-1" source="vrLYnw8pPP6m5QOJZbOX-36" target="vrLYnw8pPP6m5QOJZbOX-44">
          <mxGeometry relative="1" as="geometry" />
        </mxCell>
        <mxCell id="vrLYnw8pPP6m5QOJZbOX-59" value="Ya" style="edgeLabel;html=1;align=center;verticalAlign=middle;resizable=0;points=[];" vertex="1" connectable="0" parent="vrLYnw8pPP6m5QOJZbOX-57">
          <mxGeometry x="0.1667" y="3" relative="1" as="geometry">
            <mxPoint as="offset" />
          </mxGeometry>
        </mxCell>
        <mxCell id="vrLYnw8pPP6m5QOJZbOX-36" value="jarak &amp;gt; 10&lt;br&gt;&amp;amp;&amp;amp;&lt;br&gt;&amp;lt;= 40?" style="rhombus;whiteSpace=wrap;html=1;" vertex="1" parent="WIyWlLk6GJQsqaUBKTNV-1">
          <mxGeometry x="500" y="410" width="80" height="80" as="geometry" />
        </mxCell>
        <mxCell id="vrLYnw8pPP6m5QOJZbOX-68" style="edgeStyle=orthogonalEdgeStyle;rounded=0;orthogonalLoop=1;jettySize=auto;html=1;entryX=1;entryY=0.5;entryDx=0;entryDy=0;" edge="1" parent="WIyWlLk6GJQsqaUBKTNV-1" source="vrLYnw8pPP6m5QOJZbOX-42" target="vrLYnw8pPP6m5QOJZbOX-66">
          <mxGeometry relative="1" as="geometry">
            <Array as="points">
              <mxPoint x="770" y="230" />
              <mxPoint x="770" y="555" />
            </Array>
          </mxGeometry>
        </mxCell>
        <mxCell id="vrLYnw8pPP6m5QOJZbOX-42" value="LED 1 nyala;&lt;br&gt;Buzzer bunyi&amp;nbsp;&lt;br&gt;1 detik" style="shape=parallelogram;perimeter=parallelogramPerimeter;whiteSpace=wrap;html=1;fixedSize=1;" vertex="1" parent="WIyWlLk6GJQsqaUBKTNV-1">
          <mxGeometry x="610" y="200" width="120" height="60" as="geometry" />
        </mxCell>
        <mxCell id="vrLYnw8pPP6m5QOJZbOX-69" style="edgeStyle=orthogonalEdgeStyle;rounded=0;orthogonalLoop=1;jettySize=auto;html=1;entryX=1;entryY=0.5;entryDx=0;entryDy=0;" edge="1" parent="WIyWlLk6GJQsqaUBKTNV-1" source="vrLYnw8pPP6m5QOJZbOX-43" target="vrLYnw8pPP6m5QOJZbOX-66">
          <mxGeometry relative="1" as="geometry">
            <Array as="points">
              <mxPoint x="770" y="340" />
              <mxPoint x="770" y="555" />
            </Array>
          </mxGeometry>
        </mxCell>
        <mxCell id="vrLYnw8pPP6m5QOJZbOX-43" value="LED 1&amp;amp;2 nyala;&lt;br&gt;Buzzer bunyi&amp;nbsp;&lt;br&gt;500 ms" style="shape=parallelogram;perimeter=parallelogramPerimeter;whiteSpace=wrap;html=1;fixedSize=1;" vertex="1" parent="WIyWlLk6GJQsqaUBKTNV-1">
          <mxGeometry x="610" y="310" width="120" height="60" as="geometry" />
        </mxCell>
        <mxCell id="vrLYnw8pPP6m5QOJZbOX-70" style="edgeStyle=orthogonalEdgeStyle;rounded=0;orthogonalLoop=1;jettySize=auto;html=1;entryX=1;entryY=0.5;entryDx=0;entryDy=0;" edge="1" parent="WIyWlLk6GJQsqaUBKTNV-1" source="vrLYnw8pPP6m5QOJZbOX-44" target="vrLYnw8pPP6m5QOJZbOX-66">
          <mxGeometry relative="1" as="geometry">
            <Array as="points">
              <mxPoint x="770" y="450" />
              <mxPoint x="770" y="555" />
            </Array>
          </mxGeometry>
        </mxCell>
        <mxCell id="vrLYnw8pPP6m5QOJZbOX-44" value="LED 1,2,3 nyala;&lt;br&gt;Buzzer bunyi&lt;br&gt;250 ms" style="shape=parallelogram;perimeter=parallelogramPerimeter;whiteSpace=wrap;html=1;fixedSize=1;" vertex="1" parent="WIyWlLk6GJQsqaUBKTNV-1">
          <mxGeometry x="610" y="420" width="120" height="60" as="geometry" />
        </mxCell>
        <mxCell id="vrLYnw8pPP6m5QOJZbOX-67" style="edgeStyle=orthogonalEdgeStyle;rounded=0;orthogonalLoop=1;jettySize=auto;html=1;entryX=0;entryY=0.5;entryDx=0;entryDy=0;" edge="1" parent="WIyWlLk6GJQsqaUBKTNV-1" source="vrLYnw8pPP6m5QOJZbOX-45" target="vrLYnw8pPP6m5QOJZbOX-66">
          <mxGeometry relative="1" as="geometry" />
        </mxCell>
        <mxCell id="vrLYnw8pPP6m5QOJZbOX-45" value="Semua LED mati, Buzzer nyala" style="shape=parallelogram;perimeter=parallelogramPerimeter;whiteSpace=wrap;html=1;fixedSize=1;" vertex="1" parent="WIyWlLk6GJQsqaUBKTNV-1">
          <mxGeometry x="480" y="525" width="120" height="60" as="geometry" />
        </mxCell>
        <mxCell id="vrLYnw8pPP6m5QOJZbOX-64" style="edgeStyle=orthogonalEdgeStyle;rounded=0;orthogonalLoop=1;jettySize=auto;html=1;entryX=0.5;entryY=0;entryDx=0;entryDy=0;" edge="1" parent="WIyWlLk6GJQsqaUBKTNV-1" source="vrLYnw8pPP6m5QOJZbOX-61" target="vrLYnw8pPP6m5QOJZbOX-1">
          <mxGeometry relative="1" as="geometry" />
        </mxCell>
        <mxCell id="vrLYnw8pPP6m5QOJZbOX-61" value="loop()" style="rounded=1;whiteSpace=wrap;html=1;fontSize=12;glass=0;strokeWidth=1;shadow=0;" vertex="1" parent="WIyWlLk6GJQsqaUBKTNV-1">
          <mxGeometry x="110" y="235" width="120" height="40" as="geometry" />
        </mxCell>
        <mxCell id="vrLYnw8pPP6m5QOJZbOX-66" value="loop()" style="rounded=1;whiteSpace=wrap;html=1;fontSize=12;glass=0;strokeWidth=1;shadow=0;" vertex="1" parent="WIyWlLk6GJQsqaUBKTNV-1">
          <mxGeometry x="630" y="535" width="120" height="40" as="geometry" />
        </mxCell>
      </root>
    </mxGraphModel>
  </diagram>
</mxfile>
